<svg width="15" height="4" viewBox="0 0 15 4" fill="none" xmlns="http://www.w3.org/2000/svg">
<path d="M1.58815 0.408049C2.44666 0.408049 3.14261 1.10398 3.14261 1.96251C3.14261 2.82104 2.44666 3.51697 1.58815 3.51697C0.729646 3.51697 0.0336914 2.82104 0.0336914 1.96251C0.0336914 1.10398 0.729646 0.408049 1.58815 0.408049Z" fill="#656565"/>
<path d="M7.02858 0.408049C7.88711 0.408049 8.58304 1.10398 8.58304 1.96251C8.58304 2.82104 7.88711 3.51697 7.02858 3.51697C6.17005 3.51697 5.47412 2.82104 5.47412 1.96251C5.47412 1.10398 6.17005 0.408049 7.02858 0.408049Z" fill="#656565"/>
<path d="M14.024 1.96251C14.024 1.10398 13.328 0.408049 12.4695 0.408049C11.611 0.408049 10.915 1.10398 10.915 1.96251C10.915 2.82104 11.611 3.51697 12.4695 3.51697C13.328 3.51697 14.024 2.82104 14.024 1.96251Z" fill="#656565"/>
</svg>
