<svg width="18" height="19" viewBox="0 0 18 19" fill="none" xmlns="http://www.w3.org/2000/svg">
<path d="M15.2837 8.27267C15.4183 8.79813 15.497 9.34606 15.497 9.91282C15.497 13.5777 12.516 16.5586 8.85132 16.5586C5.18668 16.5586 2.205 13.5778 2.205 9.91282C2.205 6.24807 5.18668 3.26642 8.85132 3.26642C9.78535 3.26642 10.6735 3.46239 11.4808 3.81152L12.4688 2.22336C11.3693 1.70388 10.146 1.40442 8.85132 1.40442C4.15977 1.40442 0.342773 5.22142 0.342773 9.91282C0.342773 14.6039 4.15977 18.4208 8.85132 18.4208C13.5422 18.4208 17.3591 14.6039 17.3591 9.91282C17.3591 8.60895 17.0555 7.37741 16.5294 6.27179L15.2837 8.27267Z" fill="#656565"/>
<path d="M16.8683 0.441383C16.141 -0.01091 15.1839 0.210868 14.731 0.938208L8.5611 10.8529L6.49424 7.90536C6.0027 7.20401 5.03402 7.03422 4.33267 7.52583C3.63147 8.01807 3.46105 8.98536 3.95321 9.68733L7.36751 14.5566C7.65864 14.9711 8.13315 15.2172 8.63808 15.2172C8.652 15.2172 8.66661 15.2172 8.68056 15.2166C9.20118 15.202 9.6802 14.9276 9.95521 14.4855L17.3655 2.57858C17.8188 1.85043 17.5957 0.89397 16.8683 0.441383Z" fill="#656565"/>
</svg>
