<svg width="14" height="14" viewBox="0 0 14 14" fill="none" xmlns="http://www.w3.org/2000/svg">
<path d="M12.518 3.68042L6.81872 9.37969C6.25117 9.94723 4.56646 10.2101 4.19009 9.83372C3.81372 9.45735 4.07061 7.77265 4.63815 7.20511L10.3434 1.49985C10.4841 1.34635 10.6545 1.22296 10.8442 1.13711C11.0339 1.05126 11.239 1.00473 11.4472 1.00034C11.6554 0.995962 11.8623 1.0338 12.0554 1.11159C12.2486 1.18938 12.424 1.30552 12.571 1.45296C12.718 1.6004 12.8337 1.7761 12.9109 1.96946C12.9882 2.16282 13.0255 2.36982 13.0206 2.57799C13.0156 2.78616 12.9685 2.99118 12.8821 3.18065C12.7958 3.37012 12.6719 3.54014 12.518 3.68042Z" stroke="#656565" stroke-width="1.2" stroke-linecap="round" stroke-linejoin="round"/>
<path d="M6.37674 2.24664H3.38969C2.75591 2.24664 2.14814 2.4984 1.69999 2.94655C1.25185 3.3947 1.00004 4.00251 1.00004 4.63629V10.6104C1.00004 11.2442 1.25185 11.852 1.69999 12.3001C2.14814 12.7483 2.75591 13 3.38969 13H9.96121C11.2815 13 11.7534 11.9247 11.7534 10.6104V7.62334" stroke="#656565" stroke-width="1.2" stroke-linecap="round" stroke-linejoin="round"/>
</svg>
