<svg width="52" height="52" viewBox="0 0 52 52" fill="none" xmlns="http://www.w3.org/2000/svg">
<rect width="52" height="52" rx="8" fill="#5E6FE1"/>
<path d="M20 21.2H16.4C15.08 21.2 14 20.12 14 18.8V16.4C14 15.08 15.08 14 16.4 14H20C21.32 14 22.4 15.08 22.4 16.4V18.8C22.4 20.12 21.32 21.2 20 21.2Z" stroke="white" stroke-width="1.8" stroke-linecap="round" stroke-linejoin="round"/>
<path d="M36.5598 20.0002H32.2398C31.4478 20.0002 30.7998 19.3522 30.7998 18.5602V16.6402C30.7998 15.8482 31.4478 15.2002 32.2398 15.2002H36.5598C37.3518 15.2002 37.9998 15.8482 37.9998 16.6402V18.5602C37.9998 19.3522 37.3518 20.0002 36.5598 20.0002Z" stroke="white" stroke-width="1.8" stroke-linecap="round" stroke-linejoin="round"/>
<path d="M36.5598 29.0002H32.2398C31.4478 29.0002 30.7998 28.3522 30.7998 27.5602V25.6402C30.7998 24.8482 31.4478 24.2002 32.2398 24.2002H36.5598C37.3518 24.2002 37.9998 24.8482 37.9998 25.6402V27.5602C37.9998 28.3522 37.3518 29.0002 36.5598 29.0002Z" stroke="white" stroke-width="1.8" stroke-linecap="round" stroke-linejoin="round"/>
<path d="M22.3999 17.6001H30.7999" stroke="white" stroke-width="1.8" stroke-miterlimit="10" stroke-linecap="round" stroke-linejoin="round"/>
<path d="M26.6001 17.6001V33.2001C26.6001 34.5201 27.6801 35.6001 29.0001 35.6001H30.8001" stroke="white" stroke-width="1.8" stroke-miterlimit="10" stroke-linecap="round" stroke-linejoin="round"/>
<path d="M26.6001 26.6001H30.8001" stroke="white" stroke-width="1.8" stroke-miterlimit="10" stroke-linecap="round" stroke-linejoin="round"/>
<path d="M36.5598 38.0002H32.2398C31.4478 38.0002 30.7998 37.3522 30.7998 36.5602V34.6402C30.7998 33.8482 31.4478 33.2002 32.2398 33.2002H36.5598C37.3518 33.2002 37.9998 33.8482 37.9998 34.6402V36.5602C37.9998 37.3522 37.3518 38.0002 36.5598 38.0002Z" stroke="white" stroke-width="1.8" stroke-linecap="round" stroke-linejoin="round"/>
</svg>
