<svg width="28" height="28" viewBox="0 0 28 28" fill="none" xmlns="http://www.w3.org/2000/svg">
<circle cx="13.6603" cy="13.6603" r="13.6603" fill="#F1BD6C"/>
<path d="M6.05944 16.5137L6.27752 15.0641L10.5878 15.0641L10.8059 16.5137H6.05944ZM8.407 12.4856L7.06004 15.5772L7.09852 15.9877L5.91833 18.5533H3.85298L8.407 9.04764L12.961 18.5533H10.8828L9.72831 16.0647L9.75396 15.6029L8.407 12.4856ZM15.5678 16.5137L15.7859 15.0641H20.0962L20.3143 16.5137H15.5678ZM17.9154 12.4856L16.5685 15.5772L16.6069 15.9877L15.4267 18.5533H13.3614L17.9154 9.04764L22.4694 18.5533H20.3913L19.2367 16.0647L19.2624 15.6029L17.9154 12.4856Z" fill="#656565"/>
</svg>
